<svg width="145" height="160" viewBox="0 0 145 160" fill="none" xmlns="http://www.w3.org/2000/svg">
<path d="M139.01 40.811H107.606C106.813 40.811 106.053 41.1254 105.492 41.6856L90.4504 56.707C88.5671 58.5878 89.9012 61.8031 92.5643 61.8031H117.325C118.976 61.8031 120.314 63.1399 120.314 64.7881V90.6042C120.314 93.2191 123.442 94.5701 125.351 92.7792L141.057 78.0328C141.659 77.4688 141.999 76.6818 141.999 75.8578V43.7967C142 42.1471 140.662 40.811 139.01 40.811Z" fill="#26B9C0"/>
<path d="M33.8699 13.9864V45.4166C33.8699 46.208 34.1846 46.9674 34.7456 47.5277L49.787 62.5491C51.6702 64.4298 54.8898 63.0975 54.8898 60.438V35.709C54.8898 34.0601 56.2284 32.724 57.8787 32.724H83.7284C86.3475 32.724 87.7002 29.5993 85.9062 27.6941L71.0733 11.9407C70.5078 11.3403 69.7198 11 68.8946 11L36.8588 11.0015C35.2077 11.0015 33.8699 12.3375 33.8699 13.9864Z" fill="#26B9C0"/>
<path d="M6.98892 119.217H38.5359C39.3283 119.217 40.0888 118.903 40.6498 118.342L55.6911 103.321C57.5744 101.44 56.2402 98.225 53.5772 98.225H28.8154C27.1643 98.225 25.8265 96.8882 25.8265 95.24V69.3934C25.8265 66.783 22.7073 65.4298 20.7973 67.2117L4.94869 81.9946C4.34376 82.5601 4 83.35 4 84.177V116.232C4 117.881 5.33858 119.217 6.98892 119.217Z" fill="#26B9C0"/>
<path d="M112.272 146.015V114.611C112.272 113.82 111.957 113.061 111.396 112.5L96.3545 97.479C94.4713 95.5982 91.2517 96.9306 91.2517 99.5901V124.318C91.2517 125.967 89.9131 127.303 88.2628 127.303H62.4042C59.7866 127.303 58.4338 130.425 60.2248 132.331L75.0013 148.057C75.566 148.658 76.3555 148.999 77.1806 148.999H109.283C110.933 149 112.272 147.664 112.272 146.015Z" fill="#26B9C0"/>
<path d="M72.5926 41.5541C75.7631 41.5541 78.342 44.1296 78.342 47.2959C78.342 50.4622 75.7631 53.0377 72.5926 53.0377C69.4221 53.0377 66.8432 50.4622 66.8432 47.2959C66.8432 44.1296 69.4221 41.5541 72.5926 41.5541ZM72.5926 40.811C69.0062 40.811 66.0991 43.7143 66.0991 47.2959C66.0991 50.8776 69.0062 53.7808 72.5926 53.7808C76.179 53.7808 79.0861 50.8776 79.0861 47.2959C79.0861 43.7143 76.179 40.811 72.5926 40.811Z" fill="#26B9C0"/>
<path d="M72.5926 106.991C75.7631 106.991 78.342 109.566 78.342 112.732C78.342 115.899 75.7631 118.474 72.5926 118.474C69.4221 118.474 66.8432 115.899 66.8432 112.732C66.8432 109.566 69.4221 106.991 72.5926 106.991ZM72.5926 106.248C69.0062 106.248 66.0991 109.151 66.0991 112.732C66.0991 116.314 69.0062 119.217 72.5926 119.217C76.179 119.217 79.0861 116.314 79.0861 112.732C79.0861 109.151 76.179 106.248 72.5926 106.248Z" fill="#26B9C0"/>
<path d="M40.4332 74.1381C43.6036 74.1381 46.1826 76.7136 46.1826 79.8799C46.1826 83.0462 43.6036 85.6217 40.4332 85.6217C37.2627 85.6217 34.6838 83.0462 34.6838 79.8799C34.6838 76.7136 37.2627 74.1381 40.4332 74.1381ZM40.4332 73.395C36.8468 73.395 33.9397 76.2982 33.9397 79.8799C33.9397 83.4616 36.8468 86.3648 40.4332 86.3648C44.0196 86.3648 46.9267 83.4616 46.9267 79.8799C46.9267 76.2982 44.0188 73.395 40.4332 73.395Z" fill="#26B9C0"/>
<path d="M105.586 74.1381C108.756 74.1381 111.335 76.7136 111.335 79.8799C111.335 83.0462 108.756 85.6217 105.586 85.6217C102.416 85.6217 99.8366 83.0462 99.8366 79.8799C99.8366 76.7136 102.416 74.1381 105.586 74.1381ZM105.586 73.395C102 73.395 99.0925 76.2982 99.0925 79.8799C99.0925 83.4616 102 86.3648 105.586 86.3648C109.172 86.3648 112.079 83.4616 112.079 79.8799C112.079 76.2982 109.172 73.395 105.586 73.395Z" fill="#26B9C0"/>
<path d="M72.9691 53.5972H72.2161V64.9247H72.9691V53.5972Z" fill="#26B9C0"/>
<path d="M72.9691 94.8472H72.2161V106.426H72.9691V94.8472Z" fill="#26B9C0"/>
<path d="M57.5876 79.5039H46.7153V80.2559H57.5876V79.5039Z" fill="#26B9C0"/>
<path d="M99.2064 79.5039H87.6101V80.2559H99.2064V79.5039Z" fill="#26B9C0"/>
<path d="M72.5926 50.6308C74.4368 50.6308 75.9319 49.1377 75.9319 47.2959C75.9319 45.454 74.4368 43.9609 72.5926 43.9609C70.7483 43.9609 69.2532 45.454 69.2532 47.2959C69.2532 49.1377 70.7483 50.6308 72.5926 50.6308Z" fill="#26B9C0"/>
<path d="M72.5926 116.1C74.4368 116.1 75.9319 114.607 75.9319 112.765C75.9319 110.923 74.4368 109.43 72.5926 109.43C70.7483 109.43 69.2532 110.923 69.2532 112.765C69.2532 114.607 70.7483 116.1 72.5926 116.1Z" fill="#26B9C0"/>
<path d="M40.4429 83.2148C42.2872 83.2148 43.7823 81.7217 43.7823 79.8799C43.7823 78.038 42.2872 76.5449 40.4429 76.5449C38.5986 76.5449 37.1035 78.038 37.1035 79.8799C37.1035 81.7217 38.5986 83.2148 40.4429 83.2148Z" fill="#26B9C0"/>
<path d="M105.628 83.2148C107.473 83.2148 108.968 81.7217 108.968 79.8799C108.968 78.038 107.473 76.5449 105.628 76.5449C103.784 76.5449 102.289 78.038 102.289 79.8799C102.289 81.7217 103.784 83.2148 105.628 83.2148Z" fill="#26B9C0"/>
<path d="M66.155 78.1665V79.5137H69.8062L70.3099 78.8219L69.8151 78.1665H66.155Z" fill="#26B9C0"/>
<path d="M72.5153 68.4434C66.1617 68.4434 61.0105 73.5877 61.0105 79.9329C61.0105 86.2781 66.1617 91.4224 72.5153 91.4224C78.8689 91.4224 84.02 86.2781 84.02 79.9329C84.02 73.5877 78.8689 68.4434 72.5153 68.4434ZM70.5978 80.942H66.155V83.0345H64.2576V76.7562H70.8322L72.2623 78.6964L70.5978 80.942ZM79.5281 83.0434L75.0674 79.3793V83.0434L73.1701 83.0345V76.7562H74.5012L79.0698 80.5103V76.7562H80.9671V83.0434H79.5281Z" fill="#26B9C0"/>
<path d="M72.612 65.4916C74.5599 65.4916 76.4491 65.8728 78.2275 66.6233C79.9455 67.3493 81.4887 68.3881 82.8139 69.7116C84.1391 71.035 85.1793 72.5762 85.9062 74.2919C86.6585 76.0679 87.0394 77.9546 87.0394 79.9C87.0394 81.8454 86.6577 83.7321 85.9062 85.508C85.1793 87.2238 84.1391 88.7649 82.8139 90.0884C81.4887 91.4118 79.9455 92.4506 78.2275 93.1766C76.4491 93.9279 74.5599 94.3083 72.612 94.3083C70.664 94.3083 68.7748 93.9271 66.9965 93.1766C65.2784 92.4506 63.7352 91.4118 62.4101 90.0884C61.0849 88.7649 60.0447 87.2238 59.3177 85.508C58.5655 83.7321 58.1845 81.8454 58.1845 79.9C58.1845 77.9546 58.5662 76.0679 59.3177 74.2919C60.0447 72.5762 61.0849 71.035 62.4101 69.7116C63.7352 68.3881 65.2784 67.3493 66.9965 66.6233C68.7748 65.8721 70.664 65.4916 72.612 65.4916ZM72.612 64.7485C64.233 64.7485 57.4404 71.5321 57.4404 79.9C57.4404 88.2678 64.233 95.0514 72.612 95.0514C80.9909 95.0514 87.7835 88.2678 87.7835 79.9C87.7843 71.5321 80.9917 64.7485 72.612 64.7485Z" fill="#26B9C0"/>
</svg>
